<svg xmlns="http://www.w3.org/2000/svg" viewBox="0 0 48 48" width="48" height="48">
  <defs>
    <linearGradient id="g" x1="0" x2="1" y1="0" y2="1">
      <stop offset="0" stop-color="#fff" stop-opacity="0"/>
      <stop offset="1" stop-color="#fff" stop-opacity="0"/>
    </linearGradient>
  </defs>
  <rect width="48" height="48" rx="8" fill="#ffffff"/>
  <path fill="#EA4335" d="M24 12.5c2.7 0 4.6 1.2 5.7 2.2l4.2-4.2C31.6 8 28.1 6.5 24 6.5 15.9 6.5 9.5 11.6 7 18.3l5 3.9C13.7 16.1 18.3 12.5 24 12.5z"/>
  <path fill="#34A853" d="M12.8 21.4A11.9 11.9 0 0 0 12 24c0 1 .2 1.9.6 2.8l5-3.9c-.1-.6-.1-1.1-.1-1.7 0-.5.1-1 .2-1.4l-5-3.9z"/>
  <path fill="#FBBC05" d="M24 41.5c4.1 0 7.6-1.5 10.3-3.9l-5-3.9c-1.4 1-3.5 2.1-5.3 2.1-5.7 0-10.3-3.6-12-8.6l-5 3.9C9.5 36.4 15.9 41.5 24 41.5z"/>
  <path fill="#4285F4" d="M40 24c0-1.2-.1-2.3-.4-3.4H24v6.6h9.4c-.4 2-1.6 3.7-3.2 4.8l5 3.9C36.9 33.9 40 29.4 40 24z"/>
</svg>
