<svg xmlns="http://www.w3.org/2000/svg" viewBox="0 0 48 48" width="48" height="48">
  <rect width="48" height="48" rx="6" fill="#fff" />
  <path fill="#EA4335" d="M24 12.5c2.8 0 4.9 1.1 6.4 2.1l4.7-4.6C32.9 7 28.9 5 24 5 15.6 5 8.6 9.9 5.6 18.3l5.5 4.3C12 16 17.5 12.5 24 12.5z"/>
  <path fill="#34A853" d="M9.1 24.6C9 23.5 9 22.4 9 21.3s0-2.2.1-3.3l-5.5-4.3C1.9 16.9 1.9 22.4 3.8 27l5.3-2.4z"/>
  <path fill="#4A90E2" d="M24 36.5c-5.1 0-9.4-2.4-12.1-6.1l-5.3 2.4C8.2 40.1 15.6 44 24 44c5.2 0 9.2-1.7 12-4.6l-5.4-3.9c-1.6 1.3-4.1 1.9-6.6 1.9z"/>
  <path fill="#FBBC05" d="M41.9 24c0-1.3-.1-2.6-.3-3.8H24v7.2h10.8c-.5 2.2-2 4.1-4.2 5.4l5.4 3.9C40.9 34.6 41.9 29.9 41.9 24z"/>
</svg>